<svg width="30" height="30" fill="none" xmlns="http://www.w3.org/2000/svg"><circle cx="15" cy="15" r="15" fill="#F34C57"/><path d="M17.093 14.376c.66.3 1.164.708 1.512 1.224.36.504.54 1.098.54 1.782 0 .768-.216 1.44-.648 2.016-.42.576-1.02 1.02-1.8 1.332-.78.3-1.686.45-2.718.45s-1.938-.15-2.718-.45c-.768-.312-1.362-.756-1.782-1.332-.42-.576-.63-1.248-.63-2.016 0-.684.174-1.278.522-1.782.348-.516.846-.924 1.494-1.224a3.09 3.09 0 01-1.17-1.08c-.264-.456-.396-.978-.396-1.566 0-.708.192-1.326.576-1.854.396-.528.948-.936 1.656-1.224.708-.288 1.524-.432 2.448-.432.936 0 1.758.144 2.466.432.708.288 1.26.696 1.656 1.224.396.528.594 1.146.594 1.854 0 .588-.138 1.104-.414 1.548-.276.444-.672.81-1.188 1.098zm-3.114-4.32c-.732 0-1.314.156-1.746.468-.42.312-.63.75-.63 1.314 0 .54.21.972.63 1.296.432.312 1.014.468 1.746.468.744 0 1.332-.156 1.764-.468a1.54 1.54 0 00.648-1.296c0-.564-.222-1.002-.666-1.314-.432-.312-1.014-.468-1.746-.468zm0 9.288c.864 0 1.548-.18 2.052-.54.504-.36.756-.858.756-1.494 0-.624-.252-1.116-.756-1.476-.504-.36-1.188-.54-2.052-.54-.864 0-1.542.18-2.034.54-.492.36-.738.852-.738 1.476 0 .636.246 1.134.738 1.494.492.36 1.17.54 2.034.54z" fill="#fff"/></svg>