<svg width="30" height="30" fill="none" xmlns="http://www.w3.org/2000/svg"><circle cx="15" cy="15" r="15" fill="#F34C57"/><path d="M13.978 13.278c1.776 0 3.09.348 3.942 1.044.852.684 1.278 1.62 1.278 2.808 0 .756-.186 1.44-.558 2.052-.372.612-.93 1.098-1.674 1.458-.744.36-1.662.54-2.754.54-.9 0-1.77-.126-2.61-.378-.84-.264-1.548-.624-2.124-1.08l.99-1.818c.468.384 1.026.69 1.674.918.66.216 1.338.324 2.034.324.828 0 1.476-.168 1.944-.504.48-.348.72-.822.72-1.422 0-.648-.258-1.134-.774-1.458-.504-.336-1.374-.504-2.61-.504h-3.042l.648-6.858h7.398v1.962h-5.418l-.27 2.916h1.206z" fill="#fff"/></svg>