<svg width="15" height="15" fill="none" xmlns="http://www.w3.org/2000/svg"><path d="M14.568 12.027c0-.07 0-.14-.03-.211-.07-.211-.563-.432-.764-.533-.572-.32-1.155-.632-1.717-.964-.262-.16-.583-.462-.895-.462-.612 0-1.506 1.818-2.049 1.818-.27 0-.622-.25-.863-.392-1.83-1.013-3.094-2.279-4.11-4.107-.14-.24-.391-.592-.391-.864 0-.542 1.818-1.436 1.818-2.049 0-.311-.302-.633-.462-.894-.332-.562-.643-1.145-.965-1.717-.1-.201-.321-.693-.532-.764-.07-.03-.14-.03-.211-.03-.362 0-1.065.16-1.396.312-.492.21-.814.773-1.065 1.225C.615 2.988.424 3.59.424 4.263c0 .934.382 1.778.693 2.632a9.31 9.31 0 00.834 1.758c1.054 1.707 3.113 3.767 4.821 4.821a9.391 9.391 0 001.758.834c.854.311 1.697.693 2.631.693.673 0 1.276-.19 1.869-.512.452-.251 1.014-.573 1.225-1.065.15-.332.312-1.035.312-1.396z" fill="#fff"/></svg>