<svg width="30" height="30" fill="none" xmlns="http://www.w3.org/2000/svg"><circle cx="15" cy="15" r="15" fill="#F34C57"/><path d="M14.873 13.224c.828 0 1.572.162 2.232.486.66.312 1.176.762 1.548 1.35.372.588.558 1.266.558 2.034 0 .816-.204 1.536-.612 2.16a4.074 4.074 0 01-1.656 1.422c-.696.336-1.476.504-2.34.504-1.728 0-3.072-.54-4.032-1.62-.948-1.08-1.422-2.628-1.422-4.644 0-1.416.258-2.622.774-3.618.516-1.008 1.236-1.77 2.16-2.286.936-.528 2.016-.792 3.24-.792a7.33 7.33 0 011.818.216c.576.132 1.074.33 1.494.594l-.864 1.764c-.624-.408-1.422-.612-2.394-.612-1.212 0-2.16.372-2.844 1.116-.684.744-1.026 1.818-1.026 3.222v.018a3.424 3.424 0 011.422-.972c.576-.228 1.224-.342 1.944-.342zm-.396 6.12c.732 0 1.326-.192 1.782-.576.456-.396.684-.918.684-1.566 0-.66-.228-1.182-.684-1.566-.456-.384-1.068-.576-1.836-.576-.756 0-1.374.204-1.854.612a1.965 1.965 0 00-.702 1.548c0 .612.228 1.122.684 1.53.468.396 1.11.594 1.926.594z" fill="#fff"/></svg>