<svg width="30" height="30" fill="none" xmlns="http://www.w3.org/2000/svg"><circle cx="15" cy="15" r="15" fill="#F34C57"/><path d="M19.18 19.02V21H9.892v-1.566l5.004-4.752c.564-.54.942-1.008 1.134-1.404.204-.408.306-.81.306-1.206 0-.588-.198-1.038-.594-1.35-.396-.312-.978-.468-1.746-.468-1.284 0-2.268.438-2.952 1.314l-1.638-1.26c.492-.66 1.152-1.17 1.98-1.53.84-.372 1.776-.558 2.808-.558 1.368 0 2.46.324 3.276.972.816.648 1.224 1.53 1.224 2.646 0 .684-.144 1.326-.432 1.926-.288.6-.84 1.284-1.656 2.052L13.24 19.02h5.94z" fill="#fff"/></svg>